<svg aria-hidden="true" version="1.1" xmlns="http://www.w3.org/2000/svg" xmlns:xlink="http://www.w3.org/1999/xlink">
  <defs>
    <symbol id="search" viewBox="0 0 32 32">
      <path d="M19.427 20.427c-1.39 0.99-3.090 1.573-4.927 1.573-4.694 0-8.5-3.806-8.5-8.5s3.806-8.5 8.5-8.5c4.694 0 8.5 3.806 8.5 8.5 0 1.837-0.583 3.537-1.573 4.927l5.585 5.585c0.55 0.55 0.546 1.431-0 1.976l-0.023 0.023c-0.544 0.544-1.431 0.546-1.976 0l-5.585-5.585zM14.5 20c3.59 0 6.5-2.91 6.5-6.5s-2.91-6.5-6.5-6.5c-3.59 0-6.5 2.91-6.5 6.5s2.91 6.5 6.5 6.5v0z"></path>
    </symbol>
    <symbol id="user" viewBox="0 0 8 8">
      <path d="M4.462 5.403v-0.381c0.508-0.287 0.923-1.001 0.923-1.715 0-1.147 0-2.077-1.385-2.077s-1.385 0.93-1.385 2.077c0 0.714 0.415 1.429 0.923 1.715v0.381c-1.566 0.128-2.769 0.897-2.769 1.827h6.462c0-0.93-1.204-1.699-2.769-1.827z"></path>
    </symbol>
    <symbol id="facebook" viewBox="0 0 8 8">
      <path d="M7.25 0h-6.5c-0.412 0-0.75 0.338-0.75 0.75v6.5c0 0.412 0.338 0.75 0.75 0.75h3.25v-3.5h-1v-1h1v-0.5c0-0.827 0.673-1.5 1.5-1.5h1v1h-1c-0.275 0-0.5 0.225-0.5 0.5v0.5h1.5l-0.25 1h-1.25v3.5h2.25c0.412 0 0.75-0.338 0.75-0.75v-6.5c0-0.412-0.338-0.75-0.75-0.75z"></path>
    </symbol>
    <symbol id="instagram" viewBox="0 0 8 8">
      <path d="M4 0.72c1.069 0 1.195 0.005 1.616 0.023 0.391 0.017 0.602 0.083 0.742 0.138 0.186 0.072 0.32 0.159 0.459 0.298 0.141 0.141 0.227 0.273 0.3 0.459 0.055 0.141 0.12 0.353 0.138 0.742 0.019 0.422 0.023 0.548 0.023 1.616s-0.005 1.195-0.023 1.616c-0.017 0.391-0.083 0.602-0.138 0.742-0.072 0.186-0.159 0.32-0.298 0.459-0.141 0.141-0.273 0.227-0.459 0.3-0.141 0.055-0.353 0.12-0.742 0.138-0.422 0.019-0.548 0.023-1.616 0.023s-1.195-0.005-1.616-0.023c-0.391-0.017-0.602-0.083-0.742-0.138-0.186-0.072-0.32-0.159-0.459-0.298-0.141-0.141-0.227-0.273-0.3-0.459-0.055-0.141-0.12-0.353-0.137-0.742-0.019-0.422-0.023-0.548-0.023-1.616s0.005-1.195 0.023-1.616c0.017-0.391 0.083-0.602 0.137-0.742 0.072-0.186 0.159-0.32 0.298-0.459 0.141-0.141 0.273-0.227 0.459-0.3 0.141-0.055 0.353-0.12 0.742-0.137 0.42-0.019 0.547-0.023 1.616-0.023zM4 0c-1.086 0-1.222 0.005-1.648 0.023-0.425 0.019-0.717 0.087-0.97 0.186-0.264 0.103-0.488 0.239-0.709 0.463-0.223 0.222-0.359 0.445-0.463 0.708-0.098 0.255-0.167 0.545-0.186 0.97-0.019 0.428-0.023 0.564-0.023 1.65s0.005 1.222 0.023 1.648c0.019 0.425 0.087 0.717 0.186 0.97 0.103 0.264 0.239 0.487 0.463 0.709 0.222 0.222 0.445 0.359 0.708 0.461 0.255 0.098 0.545 0.167 0.97 0.186 0.427 0.019 0.563 0.023 1.648 0.023s1.222-0.005 1.648-0.023c0.425-0.019 0.717-0.088 0.97-0.186 0.263-0.102 0.486-0.239 0.708-0.461s0.359-0.445 0.461-0.708c0.098-0.255 0.167-0.545 0.186-0.97 0.019-0.427 0.023-0.563 0.023-1.648s-0.005-1.222-0.023-1.648c-0.019-0.425-0.088-0.717-0.186-0.97-0.098-0.266-0.234-0.489-0.458-0.711-0.222-0.222-0.445-0.359-0.708-0.461-0.255-0.098-0.545-0.167-0.97-0.186-0.428-0.020-0.564-0.025-1.65-0.025v0z"></path>
      <path d="M4 1.945c-1.134 0-2.055 0.92-2.055 2.055s0.92 2.055 2.055 2.055 2.055-0.92 2.055-2.055c0-1.134-0.92-2.055-2.055-2.055zM4 5.333c-0.736 0-1.333-0.597-1.333-1.333s0.597-1.333 1.333-1.333c0.736 0 1.333 0.597 1.333 1.333s-0.597 1.333-1.333 1.333z"></path>
      <path d="M6.616 1.864c0 0.265-0.215 0.48-0.48 0.48s-0.48-0.215-0.48-0.48c0-0.265 0.215-0.48 0.48-0.48s0.48 0.215 0.48 0.48z"></path>
    </symbol>
    <symbol id="twitter" viewBox="0 0 8 8">
      <path d="M8 1.769c-0.294 0.131-0.611 0.219-0.942 0.258 0.339-0.203 0.598-0.525 0.722-0.908-0.317 0.188-0.669 0.325-1.042 0.398-0.3-0.319-0.727-0.517-1.198-0.517-0.906 0-1.641 0.734-1.641 1.641 0 0.128 0.014 0.253 0.042 0.373-1.364-0.069-2.573-0.722-3.383-1.716-0.141 0.242-0.222 0.525-0.222 0.825 0 0.569 0.289 1.072 0.73 1.366-0.269-0.008-0.522-0.083-0.744-0.205 0 0.006 0 0.014 0 0.020 0 0.795 0.566 1.459 1.317 1.609-0.137 0.037-0.283 0.058-0.433 0.058-0.106 0-0.208-0.011-0.309-0.030 0.209 0.652 0.816 1.127 1.533 1.141-0.563 0.441-1.269 0.703-2.039 0.703-0.133 0-0.263-0.008-0.392-0.023 0.728 0.467 1.591 0.737 2.517 0.737 3.019 0 4.67-2.502 4.67-4.67 0-0.072-0.002-0.142-0.005-0.212 0.32-0.23 0.598-0.519 0.819-0.848z"></path>
    </symbol>
    <symbol id="local-shipping" viewBox="0 0 8 8">
      <path d="M6 6.172q0.219 0 0.359-0.148t0.141-0.352-0.141-0.352-0.359-0.148-0.359 0.148-0.141 0.352 0.141 0.352 0.359 0.148zM6.5 3.172h-0.828v0.828h1.484zM2 6.172q0.219 0 0.359-0.148t0.141-0.352-0.141-0.352-0.359-0.148-0.359 0.148-0.141 0.352 0.141 0.352 0.359 0.148zM6.672 2.672l1 1.328v1.672h-0.672q0 0.406-0.297 0.703t-0.703 0.297-0.703-0.297-0.297-0.703h-2q0 0.406-0.297 0.703t-0.703 0.297-0.703-0.297-0.297-0.703h-0.672v-3.672q0-0.266 0.203-0.469t0.469-0.203h4.672v1.344h1z"></path>
    </symbol>
    <symbol id="view" viewBox="0 0 16 16">
      <path d="M8 6q0.813 0 1.406 0.594t0.594 1.406-0.594 1.406-1.406 0.594-1.406-0.594-0.594-1.406 0.594-1.406 1.406-0.594zM8 11.344q1.375 0 2.359-0.984t0.984-2.359-0.984-2.359-2.359-0.984-2.359 0.984-0.984 2.359 0.984 2.359 2.359 0.984zM8 3q2.469 0 4.469 1.375t2.875 3.625q-0.875 2.25-2.875 3.625t-4.469 1.375-4.469-1.375-2.875-3.625q0.875-2.25 2.875-3.625t4.469-1.375z"></path>
    </symbol>
    <symbol id="favorite_outline" viewBox="0 0 16 16">
      <path d="M8.063 12.375q1.5-1.344 2.219-2.031t1.563-1.625 1.172-1.656 0.328-1.406q0-1-0.672-1.656t-1.672-0.656q-0.781 0-1.453 0.438t-0.922 1.125h-1.25q-0.25-0.688-0.922-1.125t-1.453-0.438q-1 0-1.672 0.656t-0.672 1.656q0 0.688 0.328 1.406t1.172 1.656 1.563 1.625 2.219 2.031l0.063 0.063zM11 2q1.563 0 2.609 1.063t1.047 2.594q0 0.906-0.344 1.766t-1.266 1.922-1.672 1.781-2.406 2.219l-0.969 0.875-0.969-0.844q-2.156-1.938-3.109-2.906t-1.766-2.281-0.813-2.531q0-1.531 1.047-2.594t2.609-1.063q1.813 0 3 1.406 1.188-1.406 3-1.406z"></path>
    </symbol>
    <symbol id="favorite" viewBox="0 0 16 16">
      <path d="M8 14.219l-0.969-0.875q-1.656-1.5-2.406-2.219t-1.672-1.781-1.266-1.922-0.344-1.766q0-1.531 1.047-2.594t2.609-1.063q1.813 0 3 1.406 1.188-1.406 3-1.406 1.563 0 2.609 1.063t1.047 2.594q0 1.219-0.813 2.531t-1.766 2.281-3.109 2.906z"></path>
    </symbol>
    <symbol id="phone" viewBox="0 0 16 16">
      <path d="M13.344 10.25q0.281 0 0.469 0.188t0.188 0.469v2.313q0 0.781-0.656 0.781-4.656 0-8-3.344t-3.344-8q0-0.656 0.781-0.656h2.313q0.281 0 0.469 0.188t0.188 0.469q0 1.219 0.375 2.344 0.125 0.406-0.156 0.688l-1.281 1.125q1.438 3 4.594 4.531l1.031-1.313q0.188-0.188 0.469-0.188 0.156 0 0.219 0.031 1.125 0.375 2.344 0.375z"></path>
    </symbol>
    <symbol id="email" viewBox="0 0 16 16">
      <path d="M13.344 5.344v-1.344l-5.344 3.344-5.344-3.344v1.344l5.344 3.313zM13.344 2.656q0.531 0 0.922 0.406t0.391 0.938v8q0 0.531-0.391 0.938t-0.922 0.406h-10.688q-0.531 0-0.922-0.406t-0.391-0.938v-8q0-0.531 0.391-0.938t0.922-0.406h10.688z"></path>
    </symbol>
    <symbol id="location_pin" viewBox="0 0 16 16">
      <path d="M8 1.344v0q-0.969 0-1.813 0.359t-1.484 1-1 1.484-0.359 1.813q0 0.875 0.234 1.688t0.703 1.531q0.469 0.781 1.047 1.469t1.047 1.469q0.25 0.375 0.422 0.734t0.359 0.766q0.094 0.188 0.188 0.422t0.25 0.406 0.406 0.172v0q0.25 0 0.406-0.172t0.25-0.406 0.188-0.422q0.188-0.406 0.359-0.766t0.422-0.734q0.469-0.75 1.047-1.453t1.047-1.484q0.469-0.719 0.703-1.531t0.234-1.688q0-0.969-0.359-1.813t-1-1.484-1.484-1-1.813-0.359zM8 7.844q-0.688 0-1.172-0.5t-0.484-1.188 0.484-1.172 1.172-0.484 1.172 0.484 0.484 1.172-0.484 1.188-1.172 0.5z"></path>
    </symbol>
    <symbol id="check" viewBox="0 0 16 16">
      <path d="M6 10.781l7.063-7.063 0.938 0.938-8 8-3.719-3.719 0.938-0.938z"></path>
    </symbol>
    <symbol id="angle" viewBox="0 0 16 16">
      <path d="M6.656 4l4 4-4 4-0.938-0.938 3.063-3.063-3.063-3.063z"></path>
    </symbol>
    <symbol id="bin" viewBox="0 0 32 32">
      <path d="M4 10v20c0 1.1 0.9 2 2 2h18c1.1 0 2-0.9 2-2v-20h-22zM10 28h-2v-14h2v14zM14 28h-2v-14h2v14zM18 28h-2v-14h2v14zM22 28h-2v-14h2v14z"></path>
      <path d="M26.5 4h-6.5v-2.5c0-0.825-0.675-1.5-1.5-1.5h-7c-0.825 0-1.5 0.675-1.5 1.5v2.5h-6.5c-0.825 0-1.5 0.675-1.5 1.5v2.5h26v-2.5c0-0.825-0.675-1.5-1.5-1.5zM18 4h-6v-1.975h6v1.975z"></path>
    </symbol>
    <symbol id="bill" viewBox="0 0 17 16">
      <path d="M6.857 10.286h3.429v-0.857h-1.143v-4h-1.018l-1.321 1.223 0.688 0.714c0.214-0.188 0.348-0.286 0.491-0.509h0.018v2.571h-1.143v0.857zM11.429 8c0 1.625-0.982 3.714-2.857 3.714s-2.857-2.089-2.857-3.714 0.982-3.714 2.857-3.714 2.857 2.089 2.857 3.714zM16 10.286v-4.571c-1.259 0-2.286-1.027-2.286-2.286h-10.286c0 1.259-1.027 2.286-2.286 2.286v4.571c1.259 0 2.286 1.027 2.286 2.286h10.286c0-1.259 1.027-2.286 2.286-2.286zM17.143 2.857v10.286c0 0.313-0.259 0.571-0.571 0.571h-16c-0.313 0-0.571-0.259-0.571-0.571v-10.286c0-0.313 0.259-0.571 0.571-0.571h16c0.313 0 0.571 0.259 0.571 0.571z"></path>
    </symbol>
    <symbol id="credit_card" viewBox="0 0 16 16">
      <path d="M13.344 5.344v-1.344h-10.688v1.344h10.688zM13.344 12v-4h-10.688v4h10.688zM13.344 2.656q0.563 0 0.938 0.391t0.375 0.953v8q0 0.563-0.375 0.953t-0.938 0.391h-10.688q-0.563 0-0.938-0.391t-0.375-0.953v-8q0-0.563 0.375-0.953t0.938-0.391h10.688z"></path>
    </symbol>
    <symbol id="cc-stripe" viewBox="0 0 21 16">
      <path d="M14.259 8.063c0 0.411-0.063 0.723-0.188 0.946-0.107 0.196-0.277 0.313-0.464 0.313-0.134 0-0.259-0.027-0.366-0.080v-2c0.232-0.241 0.438-0.268 0.509-0.268 0.339 0 0.509 0.375 0.509 1.089zM18.17 7.741h-0.982c0.036-0.598 0.196-0.875 0.5-0.875s0.464 0.286 0.482 0.875zM4.25 8.946c0-0.75-0.455-1.063-1.196-1.33v0c-0.393-0.143-0.607-0.259-0.607-0.438 0-0.152 0.125-0.232 0.339-0.232 0.411 0 0.821 0.152 1.107 0.295l0.161-1c-0.223-0.107-0.688-0.286-1.33-0.286-0.455 0-0.83 0.116-1.098 0.339-0.286 0.232-0.429 0.571-0.429 0.973 0 0.732 0.446 1.054 1.179 1.313 0.464 0.17 0.625 0.286 0.625 0.473 0 0.179-0.152 0.277-0.429 0.277-0.339 0-0.902-0.17-1.268-0.384l-0.161 1.009c0.313 0.179 0.893 0.366 1.5 0.366 0.482 0 0.875-0.116 1.152-0.33 0.304-0.241 0.455-0.589 0.455-1.045zM6.884 7.027l0.17-0.991h-0.857v-1.205l-1.152 0.188-0.161 1.018-0.411 0.071-0.152 0.92h0.554v1.955c0 0.509 0.134 0.857 0.393 1.071 0.223 0.179 0.545 0.268 0.991 0.268 0.348 0 0.554-0.063 0.705-0.098v-1.054c-0.080 0.018-0.268 0.063-0.393 0.063-0.259 0-0.375-0.143-0.375-0.446v-1.759h0.688zM9.705 7.25v-1.241c-0.089-0.018-0.17-0.027-0.25-0.027-0.375 0-0.679 0.196-0.795 0.554l-0.089-0.5h-1.17v4.205h1.339v-2.732c0.17-0.205 0.411-0.277 0.732-0.277 0.071 0 0.143 0 0.232 0.018zM10.036 10.241h1.339v-4.205h-1.339v4.205zM15.589 8.018c0-0.714-0.134-1.259-0.402-1.598-0.241-0.313-0.571-0.464-0.991-0.464-0.384 0-0.723 0.161-1.045 0.5l-0.071-0.42h-1.179v5.759l1.339-0.223v-1.348c0.205 0.063 0.42 0.098 0.607 0.098 0.33 0 0.821-0.089 1.196-0.5 0.366-0.393 0.545-1 0.545-1.804zM11.411 4.911c0-0.393-0.313-0.705-0.705-0.705s-0.705 0.313-0.705 0.705 0.313 0.714 0.705 0.714 0.705-0.321 0.705-0.714zM19.429 8.098c0-0.67-0.143-1.196-0.429-1.571-0.295-0.375-0.732-0.571-1.286-0.571-1.143 0-1.848 0.839-1.848 2.196 0 0.75 0.188 1.321 0.563 1.679 0.33 0.33 0.813 0.491 1.438 0.491 0.571 0 1.098-0.134 1.429-0.357l-0.143-0.92c-0.33 0.179-0.714 0.277-1.143 0.277-0.259 0-0.438-0.054-0.563-0.17-0.143-0.116-0.223-0.313-0.25-0.589h2.214c0.009-0.063 0.018-0.366 0.018-0.464zM20.571 2.286v11.429c0 0.625-0.518 1.143-1.143 1.143h-18.286c-0.625 0-1.143-0.518-1.143-1.143v-11.429c0-0.625 0.518-1.143 1.143-1.143h18.286c0.625 0 1.143 0.518 1.143 1.143z"></path>
    </symbol>
    <symbol id="cc-visa" viewBox="0 0 21 16">
      <path d="M17.634 8.839h-1.232c0 0 0.125-0.33 0.589-1.598-0.009 0.009 0.125-0.33 0.196-0.545l0.107 0.491c0.277 1.366 0.339 1.652 0.339 1.652zM4.741 8.259l-0.518-2.634c-0.071-0.366-0.348-0.482-0.67-0.482h-2.393l-0.018 0.116c1.643 0.42 2.991 1.313 3.598 3zM6.339 5.143l-1.446 3.911-0.152-0.795c-0.313-0.83-1.071-1.598-1.929-1.946l1.205 4.554h1.563l2.33-5.723h-1.571zM7.58 10.875h1.482l0.929-5.732h-1.482zM14.438 5.286c-0.295-0.116-0.759-0.241-1.33-0.241-1.464 0-2.491 0.777-2.5 1.893-0.009 0.821 0.732 1.277 1.295 1.554 0.58 0.277 0.768 0.464 0.768 0.714 0 0.384-0.464 0.554-0.884 0.554-0.598 0-0.92-0.071-1.393-0.295l-0.196-0.098-0.205 1.286c0.348 0.161 0.982 0.304 1.652 0.304 1.554 0.009 2.563-0.768 2.58-1.955 0-0.652-0.402-1.143-1.25-1.554-0.518-0.259-0.83-0.446-0.83-0.714 0-0.241 0.268-0.491 0.848-0.491 0.482-0.009 0.839 0.089 1.107 0.214l0.134 0.071zM18.232 5.143h-1.143c-0.357 0-0.625 0.107-0.777 0.482l-2.196 5.25h1.554c0.25-0.705 0.313-0.857 0.313-0.857h1.893c0 0 0.045 0.196 0.179 0.857h1.375zM20.571 2.286v11.429c0 0.625-0.518 1.143-1.143 1.143h-18.286c-0.625 0-1.143-0.518-1.143-1.143v-11.429c0-0.625 0.518-1.143 1.143-1.143h18.286c0.625 0 1.143 0.518 1.143 1.143z"></path>
    </symbol>
    <symbol id="cc-mastercard" viewBox="0 0 21 16">
      <path d="M9.991 3.045c-0.741-0.491-1.616-0.759-2.509-0.759-2.509 0-4.545 2.036-4.545 4.536 0 2.509 2.036 4.545 4.545 4.545 0.893 0 1.768-0.268 2.509-0.759-2.393-1.946-2.375-5.616 0-7.563zM10.286 3.259c-2.304 1.813-2.313 5.33 0 7.134 2.313-1.804 2.304-5.321 0-7.134zM10.58 3.045c2.366 1.946 2.402 5.625 0 7.563 0.741 0.491 1.625 0.759 2.509 0.759 2.509 0 4.545-2.036 4.545-4.545 0-2.5-2.036-4.536-4.545-4.536-0.893 0-1.768 0.268-2.509 0.759zM17.196 9.491h0.063v-0.027h-0.152v0.027h0.063v0.152h0.027v-0.152zM17.455 9.643h0.036v-0.179h-0.045l-0.054 0.116-0.054-0.116h-0.045v0.179h0.027v-0.134l0.054 0.116h0.036l0.045-0.116v0.134zM17.384 13.571v0.018h-0.045v-0.027h0.045v0.009zM17.384 13.652h0.027l-0.036-0.045c0.018 0 0.018-0.009 0.027-0.009 0.009-0.009 0.009-0.018 0.009-0.027s0-0.018-0.009-0.027c-0.009 0-0.018-0.009-0.036-0.009h-0.054v0.116h0.027v-0.045h0.009zM6.116 13.045c0-0.214 0.134-0.384 0.366-0.384 0.214 0 0.357 0.17 0.357 0.384 0 0.223-0.143 0.384-0.357 0.384-0.232 0-0.366-0.17-0.366-0.384zM10.339 12.652c0.17 0 0.286 0.098 0.313 0.286h-0.625c0.027-0.17 0.134-0.286 0.313-0.286zM13.518 13.045c0-0.214 0.134-0.384 0.357-0.384s0.366 0.17 0.366 0.384c0 0.223-0.143 0.384-0.366 0.384s-0.357-0.17-0.357-0.384zM15.946 13.045c0-0.214 0.143-0.384 0.366-0.384 0.214 0 0.366 0.17 0.366 0.384 0 0.223-0.152 0.384-0.366 0.384-0.223 0-0.366-0.17-0.366-0.384zM17.357 13.688c-0.009 0-0.018 0-0.036-0.009-0.009 0-0.018-0.009-0.027-0.018s-0.018-0.018-0.018-0.027-0.009-0.027-0.009-0.036 0-0.027 0.009-0.036c0-0.018 0.009-0.027 0.018-0.036s0.018-0.009 0.027-0.018 0.027-0.009 0.036-0.009 0.027 0 0.036 0.009 0.027 0.009 0.036 0.018 0.009 0.018 0.018 0.036c0 0.009 0.009 0.018 0.009 0.036 0 0.009-0.009 0.018-0.009 0.036-0.009 0.009-0.009 0.018-0.018 0.027s-0.018 0.018-0.036 0.018c-0.009 0.009-0.018 0.009-0.036 0.009zM5.348 13.652h0.268v-0.759c0-0.286-0.188-0.473-0.482-0.482-0.152 0-0.313 0.045-0.42 0.214-0.080-0.134-0.214-0.214-0.402-0.214-0.125 0-0.25 0.045-0.348 0.179v-0.143h-0.268v1.205h0.268v-0.67c0-0.214 0.116-0.321 0.295-0.321s0.268 0.116 0.268 0.321v0.67h0.259v-0.67c0-0.214 0.125-0.321 0.295-0.321 0.179 0 0.268 0.116 0.268 0.321v0.67zM6.83 13.652h0.259v-1.205h-0.259v0.143c-0.089-0.107-0.214-0.179-0.384-0.179-0.339 0-0.598 0.268-0.598 0.634s0.259 0.634 0.598 0.634c0.17 0 0.295-0.063 0.384-0.179v0.152zM8.42 13.286c0-0.214-0.161-0.321-0.42-0.357l-0.125-0.018c-0.116-0.018-0.205-0.045-0.205-0.125s0.080-0.134 0.223-0.134c0.161 0 0.304 0.054 0.384 0.098l0.107-0.214c-0.125-0.080-0.295-0.125-0.491-0.125-0.304 0-0.5 0.152-0.5 0.393 0 0.196 0.143 0.313 0.42 0.348l0.116 0.018c0.152 0.027 0.214 0.063 0.214 0.125 0 0.098-0.098 0.152-0.277 0.152s-0.313-0.063-0.402-0.125l-0.116 0.205c0.143 0.098 0.321 0.152 0.518 0.152 0.348 0 0.554-0.161 0.554-0.393zM9.58 13.589l-0.071-0.223c-0.080 0.045-0.161 0.063-0.232 0.063-0.134 0-0.17-0.080-0.17-0.196v-0.545h0.429v-0.241h-0.429v-0.366h-0.268v0.366h-0.25v0.241h0.25v0.545c0 0.277 0.107 0.446 0.42 0.446 0.107 0 0.241-0.036 0.321-0.089zM10.348 12.411c-0.348 0-0.598 0.259-0.598 0.634 0 0.384 0.259 0.634 0.616 0.634 0.179 0 0.348-0.045 0.491-0.17l-0.125-0.196c-0.098 0.080-0.232 0.134-0.348 0.134-0.17 0-0.321-0.080-0.366-0.295h0.902v-0.107c0-0.375-0.232-0.634-0.571-0.634zM11.768 12.411c-0.152 0-0.25 0.071-0.313 0.179v-0.143h-0.268v1.205h0.268v-0.679c0-0.196 0.080-0.313 0.259-0.313 0.054 0 0.107 0.009 0.161 0.036l0.080-0.25c-0.063-0.027-0.134-0.036-0.188-0.036zM12.036 13.045c0 0.366 0.25 0.634 0.643 0.634 0.179 0 0.304-0.036 0.429-0.143l-0.125-0.214c-0.098 0.071-0.196 0.116-0.313 0.107-0.214 0-0.366-0.152-0.366-0.384s0.152-0.384 0.366-0.384c0.116 0 0.214 0.036 0.313 0.107l0.125-0.214c-0.125-0.098-0.25-0.143-0.429-0.143-0.393 0-0.643 0.268-0.643 0.634zM14.223 13.652h0.268v-1.205h-0.268v0.143c-0.080-0.107-0.205-0.179-0.375-0.179-0.339 0-0.607 0.268-0.607 0.634s0.268 0.634 0.607 0.634c0.17 0 0.295-0.063 0.375-0.179v0.152zM15.411 12.411c-0.152 0-0.25 0.071-0.313 0.179v-0.143h-0.259v1.205h0.259v-0.679c0-0.196 0.089-0.313 0.259-0.313 0.054 0 0.107 0.009 0.161 0.036l0.080-0.25c-0.054-0.027-0.134-0.036-0.188-0.036zM16.661 13.652h0.259v-1.696h-0.259v0.634c-0.080-0.107-0.205-0.179-0.384-0.179-0.33 0-0.598 0.268-0.598 0.634s0.268 0.634 0.598 0.634c0.179 0 0.304-0.063 0.384-0.179v0.152zM17.357 13.473c-0.009 0-0.027 0.009-0.045 0.009-0.018 0.009-0.027 0.018-0.036 0.027-0.018 0.009-0.027 0.027-0.027 0.036-0.009 0.018-0.009 0.036-0.009 0.054 0 0.009 0 0.027 0.009 0.045 0 0.009 0.009 0.027 0.027 0.036 0.009 0.009 0.018 0.018 0.036 0.027s0.036 0.009 0.045 0.009c0.018 0 0.036 0 0.054-0.009 0.009-0.009 0.027-0.018 0.036-0.027s0.018-0.027 0.027-0.036c0.009-0.018 0.009-0.036 0.009-0.045 0-0.018 0-0.036-0.009-0.054-0.009-0.009-0.018-0.027-0.027-0.036s-0.027-0.018-0.036-0.027c-0.018 0-0.036-0.009-0.054-0.009zM20.571 2.286v11.429c0 0.625-0.518 1.143-1.143 1.143h-18.286c-0.625 0-1.143-0.518-1.143-1.143v-11.429c0-0.625 0.518-1.143 1.143-1.143h18.286c0.625 0 1.143 0.518 1.143 1.143z"></path>
    </symbol>
    <symbol id="times" viewBox="0 0 16 16">
      <path d="M11.609 4.391c-0.52-0.521-1.365-0.521-1.885 0l-1.724 1.724-1.724-1.724c-0.52-0.521-1.365-0.521-1.885 0s-0.521 1.365 0 1.885l1.723 1.724-1.723 1.724c-0.521 0.521-0.521 1.365 0 1.885 0.26 0.261 0.601 0.391 0.943 0.391s0.683-0.13 0.943-0.391l1.724-1.724 1.724 1.724c0.26 0.261 0.601 0.391 0.943 0.391s0.683-0.13 0.943-0.391c0.521-0.521 0.521-1.365 0-1.885l-1.723-1.724 1.723-1.724c0.521-0.521 0.521-1.365 0-1.885z"></path>
    </symbol>
    <symbol id="add_cart" viewBox="0 0 16 16">
      <path d="M4.781 9.844q0 0.156 0.156 0.156h7.719v1.344h-8q-0.531 0-0.922-0.406t-0.391-0.938q0-0.313 0.156-0.625l0.906-1.656-2.406-5.063h-1.344v-1.313h2.188q0.625 1.313 1.25 2.656 0.156 0.281 0.719 1.484t0.875 1.859h4.688q2.344-4.25 2.563-4.688l1.156 0.656-2.563 4.656q-0.375 0.688-1.156 0.688h-4.969l-0.594 1.094zM11.344 12q0.531 0 0.922 0.406t0.391 0.938-0.391 0.922-0.922 0.391-0.938-0.391-0.406-0.922 0.406-0.938 0.938-0.406zM4.656 12q0.531 0 0.938 0.406t0.406 0.938-0.406 0.922-0.938 0.391-0.922-0.391-0.391-0.922 0.391-0.938 0.922-0.406zM7.344 6v-2h-2v-1.344h2v-2h1.313v2h2v1.344h-2v2h-1.313z"></path>
    </symbol>
    <symbol id="cart" viewBox="0 0 16 16">
      <path d="M11.344 12q0.531 0 0.922 0.406t0.391 0.938-0.391 0.922-0.922 0.391-0.938-0.391-0.406-0.922 0.406-0.938 0.938-0.406zM0.656 1.344h2.188l0.625 1.313h9.875q0.281 0 0.469 0.203t0.188 0.484q0 0.031-0.094 0.313l-2.375 4.313q-0.375 0.688-1.156 0.688h-4.969l-0.594 1.094-0.031 0.094q0 0.156 0.156 0.156h7.719v1.344h-8q-0.531 0-0.922-0.406t-0.391-0.938q0-0.313 0.156-0.625l0.906-1.656-2.406-5.063h-1.344v-1.313zM4.656 12q0.531 0 0.938 0.406t0.406 0.938-0.406 0.922-0.938 0.391-0.922-0.391-0.391-0.922 0.391-0.938 0.922-0.406z"></path>
    </symbol>
    <symbol id="whatsapp" viewBox="0 0 16 16">
      <path d="M13.641 2.325c-1.497-1.5-3.488-2.325-5.609-2.325-4.369 0-7.925 3.556-7.925 7.928 0 1.397 0.366 2.763 1.059 3.963l-1.125 4.109 4.203-1.103c1.159 0.631 2.463 0.966 3.787 0.966h0.003c0 0 0 0 0 0 4.369 0 7.928-3.556 7.928-7.928 0-2.119-0.825-4.109-2.322-5.609zM8.034 14.525v0c-1.184 0-2.344-0.319-3.356-0.919l-0.241-0.144-2.494 0.653 0.666-2.431-0.156-0.25c-0.663-1.047-1.009-2.259-1.009-3.506 0-3.634 2.956-6.591 6.594-6.591 1.759 0 3.416 0.688 4.659 1.931 1.244 1.247 1.928 2.9 1.928 4.662-0.003 3.637-2.959 6.594-6.591 6.594zM11.647 9.588c-0.197-0.1-1.172-0.578-1.353-0.644s-0.313-0.1-0.447 0.1c-0.131 0.197-0.512 0.644-0.628 0.778-0.116 0.131-0.231 0.15-0.428 0.050s-0.838-0.309-1.594-0.984c-0.588-0.525-0.987-1.175-1.103-1.372s-0.013-0.306 0.088-0.403c0.091-0.088 0.197-0.231 0.297-0.347s0.131-0.197 0.197-0.331c0.066-0.131 0.034-0.247-0.016-0.347s-0.447-1.075-0.609-1.472c-0.159-0.388-0.325-0.334-0.447-0.341-0.116-0.006-0.247-0.006-0.378-0.006s-0.347 0.050-0.528 0.247c-0.181 0.197-0.694 0.678-0.694 1.653s0.709 1.916 0.809 2.050c0.1 0.131 1.397 2.134 3.384 2.991 0.472 0.203 0.841 0.325 1.128 0.419 0.475 0.15 0.906 0.128 1.247 0.078 0.381-0.056 1.172-0.478 1.338-0.941s0.166-0.859 0.116-0.941c-0.047-0.088-0.178-0.137-0.378-0.238z"></path>
    </symbol>
  </defs>
</svg>